<svg width="44" height="50" viewBox="0 0 44 50" fill="none" xmlns="http://www.w3.org/2000/svg">
<path d="M5.08271 50C4.23837 49.9985 3.40898 49.7798 2.67612 49.3655C1.02589 48.4416 0 46.6481 0 44.7011V5.29913C0 3.34669 1.02589 1.55866 2.67612 0.634747C3.42643 0.208712 4.27879 -0.0103777 5.14412 0.000377766C6.00944 0.0111332 6.85596 0.25134 7.59518 0.695889L41.6793 20.8534C42.3896 21.2935 42.9752 21.9046 43.3811 22.6294C43.7871 23.3542 44 24.169 44 24.9974C44 25.8258 43.7871 26.6406 43.3811 27.3654C42.9752 28.0902 42.3896 28.7013 41.6793 29.1414L7.58968 49.3044C6.83318 49.7562 5.9667 49.9966 5.08271 50Z" fill="white"/>
</svg>
